<svg t={1579435617591} className="icon" viewBox="0 0 1024 1024" version="1.1" xmlns="http://www.w3.org/2000/svg" p-id={1195} width={200} height={200}><path d="M283.733333 198.4h454.4c32 0 57.6 10.666667 81.066667 34.133333 21.333333 21.333333 34.133333 49.066667 34.133333 81.066667v113.066667h-57.6a58.282667 58.282667 0 0 0-57.6-57.6h-142.933333a58.282667 58.282667 0 0 0-57.6 57.6h-57.6a58.282667 58.282667 0 0 0-57.6-57.6h-142.933333a58.282667 58.282667 0 0 0-57.6 57.6h-57.6v-113.066667c0-32 10.666667-57.6 34.133333-81.066667 27.733333-23.466667 55.466667-34.133333 85.333333-34.133333z m-55.466666 285.866667h569.6a58.282667 58.282667 0 0 1 57.6 57.6v170.666666h-682.666667v-170.666666c0-14.933333 6.4-29.866667 17.066667-40.533334 8.533333-12.8 21.333333-17.066667 38.4-17.066666z m113.066666 283.733333v27.733333c0 8.533333-2.133333 14.933333-8.533333 19.2-6.4 6.4-12.8 8.533333-19.2 8.533334h-57.6c-8.533333 0-14.933333-2.133333-19.2-8.533334-6.4-6.4-8.533333-12.8-8.533333-19.2v-27.733333h113.066666z m454.4 0v27.733333c0 8.533333-2.133333 14.933333-8.533333 19.2-6.4 6.4-12.8 8.533333-19.2 8.533334h-57.6c-8.533333 0-14.933333-2.133333-19.2-8.533334-6.4-6.4-8.533333-12.8-8.533333-19.2v-27.733333h113.066666z" p-id={1196} /></svg>
